# xmcd
#
# Track frame offsets:
# 150
# 17933
# 38356
# 52060
# 70245
#
# Disc length: 1183 seconds
#
#
# Revision: 0
# Processed by: cddbd v1.5.1PL0 Copyright (c) Steve Scherf et al.
# Submitted via: FreeRIP 2.91 
#
DISCID=3c049d05
DTITLE=Basic Blues Trio - The blues is alright
DYEAR=1900
DGENRE=Blues
TTITLE0=Ain't it nice
TTITLE1=Five long years
TTITLE2=Sell my monkey
TTITLE3=Steppin' out, Steppin' in
TTITLE4=The blues is alright
EXTD=
EXTT0=
EXTT1=
EXTT2=
EXTT3=
EXTT4=
PLAYORDER=
